<?xml version="1.0" standalone="no"?>
<!DOCTYPE svg PUBLIC "-//W3C//DTD SVG 20010904//EN"
 "http://www.w3.org/TR/2001/REC-SVG-20010904/DTD/svg10.dtd">
<svg version="1.0" xmlns="http://www.w3.org/2000/svg"
 width="1395.000000pt" height="1080.000000pt" viewBox="0 0 1395.000000 1080.000000"
 preserveAspectRatio="xMidYMid meet">

<g transform="translate(0.000000,1080.000000) scale(0.100000,-0.100000)"
fill="#000000" stroke="none">
<path d="M8400 10139 c-96 -3 -199 -7 -229 -8 l-53 -1 3 -1447 4 -1448 -894
-3 -894 -2 6 162 c20 539 170 1002 430 1323 260 322 635 530 1124 624 120 23
137 31 160 74 16 28 18 70 21 375 l3 342 -53 0 c-79 0 -239 -26 -366 -60 -304
-81 -608 -231 -1012 -498 -144 -95 -195 -136 -291 -231 -178 -178 -306 -359
-440 -624 -132 -260 -211 -491 -248 -727 -87 -545 -104 -1350 -74 -3392 l6
-458 380 0 380 0 -9 888 c-5 488 -9 1011 -9 1162 l0 275 859 3 c552 1 863 -1
870 -8 14 -14 8 -122 -15 -235 -44 -221 -141 -447 -280 -656 -150 -223 -330
-377 -594 -508 -217 -107 -452 -175 -652 -188 l-103 -6 0 -364 0 -363 75 0
c321 0 742 115 1050 287 705 393 1179 1089 1321 1940 14 83 18 231 24 958 4
473 8 1275 9 1783 1 1012 3 975 -58 1007 -36 18 -152 35 -226 33 -27 -1 -129
-5 -225 -9z"/>
<path d="M5935 3650 c-196 -43 -325 -175 -382 -390 -23 -88 -23 -299 0 -392
51 -205 189 -351 368 -389 78 -17 232 -6 299 20 76 31 141 82 184 144 37 54
76 158 76 203 0 23 -2 24 -74 24 l-74 0 -7 -37 c-15 -83 -76 -166 -150 -206
-33 -18 -56 -22 -140 -22 -89 0 -105 3 -150 27 -135 72 -205 219 -205 433 0
216 69 359 207 427 58 28 75 32 147 32 87 0 158 -23 204 -67 28 -26 67 -99 77
-144 l7 -33 75 0 75 0 -6 38 c-27 152 -121 264 -262 313 -65 23 -207 33 -269
19z"/>
<path d="M3670 3060 l0 -570 70 0 70 0 2 263 3 262 278 3 277 2 0 60 0 60
-277 2 -278 3 -3 178 -2 177 290 0 290 0 0 65 0 65 -360 0 -360 0 0 -570z"/>
<path d="M4875 3588 c-60 -151 -419 -1066 -423 -1081 -4 -16 2 -18 73 -15 l77
3 61 163 60 162 236 0 236 0 60 -163 60 -162 78 -3 c42 -2 77 1 77 6 0 5 -99
260 -219 568 l-219 559 -70 3 -69 3 -18 -43z m133 -258 c22 -63 61 -172 86
-241 25 -70 46 -129 46 -133 0 -3 -81 -6 -180 -6 -99 0 -180 4 -180 9 0 5 24
76 54 157 29 82 68 193 87 246 19 53 37 94 41 90 3 -4 24 -59 46 -122z"/>
<path d="M6700 3060 l0 -570 70 0 70 0 0 570 0 570 -70 0 -70 0 0 -570z"/>
<path d="M7110 3060 l0 -570 365 0 365 0 0 70 0 70 -290 -2 -290 -3 0 503 0
502 -75 0 -75 0 0 -570z"/>
<path d="M8050 3060 l0 -570 70 0 70 0 0 570 0 570 -70 0 -70 0 0 -570z"/>
<path d="M8390 3565 l0 -65 180 0 180 0 0 -505 0 -505 75 0 75 0 0 505 0 505
180 0 180 0 0 65 0 65 -435 0 -435 0 0 -65z"/>
<path d="M9637 3618 c-2 -7 -102 -261 -221 -564 -119 -303 -216 -554 -216
-558 0 -4 34 -6 77 -4 l76 3 61 163 61 162 235 0 235 0 61 -162 61 -163 78 -3
c76 -3 77 -3 71 20 -3 13 -102 268 -219 568 l-214 545 -70 3 c-51 2 -72 -1
-76 -10z m97 -215 c10 -32 49 -143 87 -248 38 -104 69 -193 69 -197 0 -5 -81
-8 -180 -8 -99 0 -180 3 -180 7 0 3 38 114 85 245 47 131 85 243 85 248 0 6 4
10 8 10 5 0 16 -26 26 -57z"/>
<path d="M6716 2088 c-53 -96 -54 -98 -15 -98 28 0 39 8 61 38 14 20 41 56 58
80 l32 42 -51 0 -50 0 -35 -62z"/>
<path d="M8333 1911 c-185 -47 -293 -210 -293 -439 0 -191 81 -336 228 -405
62 -30 75 -32 172 -32 131 0 190 19 260 82 55 49 84 97 99 162 l9 41 -54 0
c-45 0 -54 -3 -54 -18 0 -10 -12 -41 -26 -70 -46 -92 -132 -130 -268 -120
-169 14 -267 150 -267 373 0 112 28 199 86 263 133 147 387 127 450 -36 l20
-52 48 0 c42 0 47 2 47 23 -1 69 -79 164 -169 205 -47 22 -73 27 -156 29 -55
1 -114 -2 -132 -6z"/>
<path d="M9169 1901 c-78 -25 -143 -74 -189 -144 -42 -62 -57 -106 -70 -197
-11 -78 4 -225 30 -292 30 -80 104 -159 188 -200 63 -31 72 -33 177 -33 98 0
116 3 167 27 157 73 232 208 231 418 -1 221 -99 374 -272 424 -72 21 -192 20
-262 -3z m262 -82 c129 -56 198 -225 171 -418 -28 -200 -136 -299 -316 -289
-129 6 -224 81 -264 208 -25 82 -22 257 7 331 64 167 236 239 402 168z"/>
<path d="M4700 1592 c0 -243 -3 -319 -15 -358 -24 -83 -86 -124 -185 -124 -69
0 -122 19 -163 58 -28 27 -57 104 -57 154 0 27 -2 28 -46 28 l-47 0 6 -60 c4
-33 13 -75 21 -94 21 -50 78 -108 133 -136 42 -22 61 -25 148 -25 90 0 106 3
158 28 31 16 69 44 83 63 51 66 53 84 54 442 l0 332 -45 0 -45 0 0 -308z"/>
<path d="M4972 1583 l3 -318 27 -58 c32 -69 74 -110 148 -146 49 -23 67 -26
165 -26 128 0 174 16 249 85 82 75 86 99 86 465 l0 315 -44 0 -45 0 -3 -312
c-3 -294 -4 -316 -24 -358 -39 -83 -106 -120 -218 -120 -91 0 -135 16 -182 65
-60 62 -64 89 -64 429 l0 296 -51 0 -50 0 3 -317z"/>
<path d="M5832 1475 l1 -425 48 0 49 0 2 188 3 187 114 0 114 0 120 -187 119
-188 54 0 c30 0 54 2 54 5 0 2 -47 76 -104 163 -136 208 -138 212 -111 212 26
0 108 32 137 53 16 12 40 45 54 74 23 46 26 63 22 127 -4 94 -37 148 -113 186
-49 24 -56 25 -306 28 l-257 3 0 -426z m503 329 c109 -55 108 -226 -1 -280
-34 -16 -62 -19 -219 -19 l-180 0 -3 163 -3 164 183 -4 c161 -3 188 -5 223
-24z"/>
<path d="M6640 1475 l0 -425 50 0 50 0 0 425 0 425 -50 0 -50 0 0 -425z"/>
<path d="M6920 1476 l0 -426 203 0 c158 0 216 4 258 16 190 56 278 204 267
445 -9 179 -71 285 -206 351 l-66 33 -228 3 -228 4 0 -426z m450 326 c101 -40
161 -125 179 -258 28 -196 -60 -368 -206 -403 -42 -10 -191 -16 -290 -12 l-33
1 0 351 0 351 148 -4 c120 -4 157 -9 202 -26z"/>
<path d="M7800 1475 l0 -425 45 0 45 0 0 425 0 425 -45 0 -45 0 0 -425z"/>
</g>
</svg>
